<svg xmlns="http://www.w3.org/2000/svg" xmlns:xlink="http://www.w3.org/1999/xlink" width="500" zoomAndPan="magnify" viewBox="0 0 375 374.999991" height="500" preserveAspectRatio="xMidYMid meet" version="1.0"><defs><clipPath id="3daf0285cf"><path d="M 111 24.546875 L 375 24.546875 L 375 256 L 111 256 Z M 111 24.546875 " clip-rule="nonzero"/></clipPath></defs><path fill="#ffffff" d="M 122.585938 277.125 C 112.332031 277.125 104.597656 286.164062 104.597656 298.152344 C 104.597656 301.683594 105.195312 313.605469 112.882812 318.773438 C 118.039062 322.238281 125.589844 322.121094 135.296875 318.523438 C 135.265625 317.996094 135.238281 317.472656 135.242188 316.976562 C 135.265625 310.570312 137.242188 304.890625 140.542969 300.597656 C 140.253906 285.464844 133.910156 277.125 122.585938 277.125 Z M 122.585938 277.125 " fill-opacity="1" fill-rule="nonzero"/><path fill="#ffffff" d="M 169.636719 304.050781 C 166.097656 300.535156 161.460938 298.527344 156.894531 298.527344 C 156.859375 298.527344 156.820312 298.527344 156.785156 298.527344 C 152.414062 298.554688 148.578125 300.554688 145.828125 303.855469 C 145.824219 303.859375 145.824219 303.863281 145.820312 303.867188 C 143.074219 307.167969 141.410156 311.769531 141.394531 317 C 141.367188 324.90625 145.9375 337.46875 158.3125 337.519531 C 158.34375 337.519531 158.375 337.519531 158.410156 337.519531 C 163.175781 337.519531 166.996094 336.121094 169.765625 333.359375 C 173.273438 329.863281 175.203125 324.050781 175.203125 316.988281 C 175.203125 312.21875 173.226562 307.625 169.636719 304.050781 Z M 169.636719 304.050781 " fill-opacity="1" fill-rule="nonzero"/><path fill="#ffffff" d="M 116.574219 271.824219 C 116.53125 262.515625 109.9375 254.101562 101.3125 252.898438 C 96.773438 252.265625 92.222656 253.621094 88.492188 256.71875 C 84.683594 259.882812 82.191406 264.472656 81.46875 269.628906 C 80.523438 276.429688 82.058594 282.535156 85.675781 286.378906 C 88.769531 289.667969 93.328125 291.289062 99.242188 291.230469 C 101.414062 281.609375 108.011719 274.214844 116.574219 271.824219 Z M 116.574219 271.824219 " fill-opacity="1" fill-rule="nonzero"/><path fill="#ffffff" d="M 197.5625 172.351562 C 194.941406 170.957031 191.78125 170.941406 189.078125 172.324219 C 169.933594 182.089844 148.925781 189.457031 148.710938 189.527344 C 148.605469 189.566406 148.496094 189.597656 148.386719 189.621094 C 127.535156 194.40625 112.390625 186.113281 107.144531 176.394531 C 104.023438 170.597656 105.121094 163.28125 109.816406 158.597656 C 134.839844 133.628906 182.589844 109.207031 204.367188 116.339844 C 240.269531 127.730469 258.960938 122.671875 268.316406 116.40625 C 279.082031 109.203125 280.480469 98.898438 280.65625 96.90625 C 280.839844 94.777344 280.695312 91.675781 278.976562 89.003906 C 273.894531 81.117188 260.890625 80.546875 247.125 79.945312 C 239.140625 79.597656 230.890625 79.238281 223.871094 77.324219 C 216.617188 75.347656 210.511719 74.542969 203.453125 74.628906 C 136.53125 75.46875 100.359375 97.816406 100.003906 98.042969 C 98.9375 98.710938 97.570312 98.667969 96.550781 97.925781 L 0 27.632812 L 0 182.84375 L 32.210938 200.433594 C 32.71875 200.710938 33.136719 201.125 33.417969 201.632812 C 33.640625 202.027344 55.226562 240.199219 80.421875 256.402344 C 81.628906 254.777344 83 253.28125 84.570312 251.980469 C 89.644531 247.769531 95.886719 245.914062 102.160156 246.804688 C 113.703125 248.410156 122.300781 258.882812 122.695312 270.976562 C 135.988281 271.027344 144.535156 279.996094 146.347656 295.3125 C 149.394531 293.453125 152.921875 292.398438 156.742188 292.371094 C 156.792969 292.371094 156.84375 292.371094 156.890625 292.371094 C 163.070312 292.371094 169.285156 295.03125 173.964844 299.6875 C 178.074219 303.769531 180.582031 308.90625 181.195312 314.363281 C 190.976562 310.546875 200.660156 313.695312 205.902344 319.566406 C 211.019531 325.296875 211.738281 332.9375 208.265625 340.085938 C 220.976562 342.550781 226.203125 334.8125 227.921875 331.097656 C 230.960938 324.539062 229.800781 317.488281 226.738281 315.5625 C 226.722656 315.554688 226.714844 315.539062 226.699219 315.527344 C 226.625 315.472656 226.542969 315.429688 226.472656 315.375 C 213.628906 305.296875 181.777344 279.769531 163.566406 260.386719 C 162.402344 259.152344 162.460938 257.203125 163.695312 256.039062 C 164.933594 254.875 166.878906 254.933594 168.042969 256.167969 C 185.96875 275.242188 217.527344 300.539062 230.265625 310.53125 C 234.222656 313.632812 239.15625 315.019531 243.800781 314.328125 C 252.148438 313.085938 258.988281 309.054688 264.128906 302.34375 C 268.730469 296.335938 268.035156 287.738281 262.515625 282.34375 C 238.703125 259.074219 197.671875 227.210938 197.257812 226.890625 C 195.914062 225.847656 195.671875 223.914062 196.710938 222.574219 C 197.746094 221.226562 199.679688 220.984375 201.023438 222.023438 C 201.441406 222.34375 242.746094 254.421875 266.808594 277.9375 C 268.503906 279.59375 269.808594 281.488281 270.84375 283.488281 C 285.621094 281.625 294.621094 269.148438 297.675781 261.761719 C 299.570312 257.175781 296.535156 251.96875 293.363281 248.90625 C 269.503906 225.878906 202.160156 175.769531 197.5625 172.351562 Z M 197.5625 172.351562 " fill-opacity="1" fill-rule="nonzero"/><g clip-path="url(#3daf0285cf)"><path fill="#ffffff" d="M 286.191406 90.472656 C 286.765625 92.636719 286.996094 94.96875 286.78125 97.433594 C 286.164062 104.628906 281.886719 114.734375 271.734375 121.523438 C 256.496094 131.714844 233.199219 131.941406 202.488281 122.195312 C 185.097656 116.515625 139.710938 137.464844 114.160156 162.957031 C 111.375 165.730469 110.71875 170.058594 112.558594 173.46875 C 116.03125 179.910156 128.027344 187.894531 146.847656 183.664062 C 148.804688 182.96875 168.398438 175.972656 186.285156 166.84375 C 190.832031 164.515625 196.191406 164.578125 200.613281 166.992188 C 213.453125 174.003906 247.875 187.121094 290.035156 157.597656 C 291.425781 156.625 293.34375 156.964844 294.316406 158.355469 C 295.289062 159.746094 294.953125 161.664062 293.558594 162.640625 C 263.257812 183.867188 236.5625 184.34375 218.125 180.089844 C 240.890625 197.320312 280.136719 227.59375 297.632812 244.484375 C 300.316406 247.074219 302.847656 250.847656 303.882812 255.019531 C 312.671875 248.585938 334.144531 230.714844 358.828125 194.398438 C 359.125 193.964844 359.523438 193.613281 359.992188 193.375 L 375 185.851562 L 375 24.738281 Z M 286.191406 90.472656 " fill-opacity="1" fill-rule="nonzero"/></g><path fill="#ffffff" d="M 181.109375 321.242188 C 180.398438 328.082031 177.992188 333.847656 174.101562 337.722656 C 173.503906 338.320312 172.871094 338.851562 172.21875 339.355469 C 174.273438 344.964844 177.710938 348.394531 182.257812 349.277344 C 188.316406 350.472656 195.796875 347.109375 200.4375 341.117188 C 205.316406 335.015625 205.632812 328.503906 201.316406 323.667969 C 197.183594 319.046875 189.066406 316.933594 181.109375 321.242188 Z M 181.109375 321.242188 " fill-opacity="1" fill-rule="nonzero"/></svg>